<svg xmlns="http://www.w3.org/2000/svg" version="1.1"><style>path { fill: none; stroke: black; stroke-width: 1px; }</style><path d="M 43,73 Z" /><path d="M 33,73 34,73 Z" /><path d="M 38,72 Z" /><path d="M 28,72 Z" /><path d="M 43,71 Z" /><path d="M 41,71 Z" /><path d="M 33,71 Z" /><path d="M 30,71 31,71 Z" /><path d="M 25,71 Z" /><path d="M 49,70 Z" /><path d="M 51,69 Z" /><path d="M 39,69 Z" /><path d="M 53,68 54,69 Z" /><path d="M 24,68 24,69 Z" /><path d="M 31,67 31,68 Z" /><path d="M 59,64 Z" /><path d="M 39,63 39,64 Z" /><path d="M 34,63 Z" /><path d="M 63,62 62,63 Z" /><path d="M 54,61 55,61 Z" /><path d="M 20,59 Z" /><path d="M 25,57 26,57 Z" /><path d="M 30,55 Z" /><path d="M 47,53 Z" /><path d="M 41,49 40,50 40,53 41,53 41,51 42,50 42,49 Z" /><path d="M 26,49 Z" /><path d="M 52,47 Z" /><path d="M 73,44 73,45 Z" /><path d="M 58,43 58,45 59,46 59,47 61,49 62,49 63,50 64,50 65,49 66,49 67,50 65,52 64,52 63,53 62,53 61,54 60,54 59,55 60,56 59,57 60,58 62,58 63,59 63,60 64,60 64,59 63,58 63,55 66,52 67,53 67,55 66,56 66,57 67,58 66,59 68,57 68,56 67,55 67,54 68,53 69,54 70,53 70,52 71,51 71,49 73,47 72,48 71,47 70,47 69,46 70,45 71,45 71,44 69,44 68,43 68,44 69,45 69,46 68,47 69,48 68,49 65,49 64,48 64,47 63,47 62,46 64,44 64,43 62,43 62,46 63,47 62,48 61,48 60,47 60,46 58,44 Z" /><path d="M 66,56 67,55 68,56 68,57 67,58 66,57 Z" /><path d="M 68,52 69,51 70,52 70,53 69,54 68,53 Z" /><path d="M 69,49 70,48 71,49 71,51 70,52 69,51 Z" /><path d="M 70,48 71,47 72,48 71,49 Z" /><path d="M 71,42 Z" /><path d="M 56,42 Z" /><path d="M 48,42 Z" /><path d="M 21,41 Z" /><path d="M 3,41 3,42 Z" /><path d="M 74,40 Z" /><path d="M 71,39 71,40 72,40 Z" /><path d="M 16,33 17,34 17,37 18,37 18,36 19,35 20,35 19,35 18,34 18,33 17,34 Z" /><path d="M 20,30 20,31 21,31 21,30 Z" /><path d="M 20,26 21,26 22,27 21,28 17,28 21,28 22,27 21,26 Z" /><path d="M 4,23 Z" /><path d="M 65,13 Z" /><path d="M 12,10 Z" /><path d="M 14,9 Z" /><path d="M 16,7 Z" /><path d="M 18,6 19,6 Z" /><path d="M 50,3 Z" /><path d="M 25,3 26,3 Z" /><path d="M 48,2 Z" /><path d="M 46,2 Z" /><path d="M 40,2 40,3 41,3 Z" /><path d="M 30,2 31,3 30,4 28,4 28,5 27,6 26,5 25,5 24,6 22,6 21,5 22,4 23,4 22,4 21,5 22,6 20,8 18,8 17,9 16,9 16,10 15,11 14,11 14,12 13,13 12,12 11,13 10,12 8,14 8,15 8,14 9,13 10,14 10,16 9,17 8,17 6,19 5,18 6,19 4,21 5,20 6,21 6,24 5,25 4,25 3,26 2,25 3,26 1,28 1,29 2,30 1,29 1,28 2,27 4,29 4,30 5,31 5,32 4,33 3,32 2,33 3,34 3,37 2,38 1,37 1,35 0,34 0,33 0,34 1,35 1,37 0,38 0,39 1,40 2,39 4,39 5,40 5,42 6,43 7,43 8,44 7,45 5,45 4,44 3,44 3,46 2,47 1,46 1,44 1,46 2,47 3,46 4,47 6,45 7,46 7,49 6,50 5,49 5,50 6,50 7,49 8,50 8,51 9,52 10,52 11,53 11,54 12,55 12,57 13,58 13,60 12,61 11,60 11,59 9,57 9,56 8,55 8,54 7,53 6,53 5,54 4,53 5,54 5,55 6,56 7,55 9,57 9,58 8,59 7,58 11,62 12,61 13,62 13,63 15,63 18,66 17,67 16,67 14,65 16,67 17,67 19,69 20,69 19,69 18,68 19,67 20,67 20,66 19,65 18,65 16,63 16,61 15,60 16,59 16,58 17,57 17,56 20,53 20,50 21,49 20,48 19,48 18,47 17,47 14,44 13,44 11,42 11,41 10,42 9,42 8,41 8,40 6,40 5,39 6,38 5,38 4,37 4,36 5,35 6,35 6,34 7,33 7,32 7,33 6,34 5,33 5,31 4,30 5,29 6,29 7,28 8,29 8,30 12,26 13,27 13,28 13,27 12,26 14,24 15,25 16,25 17,24 16,23 16,21 15,20 15,18 16,17 16,11 17,10 18,11 18,19 19,19 23,15 24,15 24,13 25,12 25,11 28,8 30,8 30,7 31,6 32,6 33,7 34,7 36,9 34,11 33,10 33,9 33,11 34,12 32,14 31,13 31,12 30,13 29,13 28,12 28,11 28,12 27,13 27,15 26,16 27,17 27,18 28,19 27,20 25,20 24,21 23,21 24,22 25,21 26,21 27,22 26,23 26,24 27,24 28,25 28,26 27,27 26,27 26,31 25,32 23,32 24,33 22,35 22,39 23,40 23,41 25,43 27,43 28,42 30,44 30,45 31,46 31,47 32,48 31,49 31,51 32,52 32,53 33,54 33,55 34,56 35,56 37,54 37,53 38,52 38,47 39,46 39,45 43,41 43,40 42,39 43,38 44,38 44,37 45,36 45,35 46,34 50,38 50,39 51,40 51,41 52,42 52,43 53,43 53,40 54,39 54,38 55,37 56,37 57,38 57,39 60,42 60,41 61,40 61,38 62,37 63,37 64,38 64,41 65,40 66,41 66,42 66,41 64,39 64,37 66,35 66,33 68,31 69,32 69,33 68,34 68,36 69,35 69,33 70,32 71,33 71,34 72,34 73,35 72,36 71,36 70,37 72,37 73,38 74,37 74,36 72,34 72,33 73,32 74,33 72,31 72,30 69,30 68,29 69,28 69,27 70,26 71,26 72,27 71,26 71,25 69,25 68,24 69,23 69,22 70,21 71,22 71,23 71,22 69,20 69,19 67,17 67,16 67,17 68,18 67,19 66,19 65,18 65,15 63,15 62,14 63,13 62,13 61,12 61,11 62,10 59,7 57,7 59,7 60,8 59,9 58,9 57,10 54,7 55,6 54,5 55,6 53,8 50,8 49,7 50,6 50,5 49,5 48,4 47,5 46,4 44,4 43,3 44,4 43,5 39,5 38,4 38,3 36,3 34,5 32,3 31,3 Z" /><path d="M 17,67 18,66 19,67 18,68 Z" /><path d="M 12,61 13,60 14,61 13,62 Z" /><path d="M 10,61 11,60 12,61 11,62 Z" /><path d="M 9,60 10,59 11,60 10,61 Z" /><path d="M 8,59 9,58 10,59 9,60 Z" /><path d="M 5,54 6,53 7,54 7,55 6,56 5,55 Z" /><path d="M 33,51 34,50 35,51 34,52 Z" /><path d="M 9,46 10,45 12,45 15,48 15,51 14,52 12,52 9,49 Z" /><path d="M 12,49 Z" /><path d="M 7,43 8,42 9,42 10,43 9,44 8,44 Z" /><path d="M 6,42 7,41 8,42 7,43 Z" /><path d="M 40,40 41,39 42,40 41,41 Z" /><path d="M 0,38 1,37 2,38 2,39 1,40 0,39 Z" /><path d="M 72,36 73,35 74,36 74,37 73,38 72,37 Z" /><path d="M 24,36 25,35 26,36 25,37 Z" /><path d="M 32,35 33,34 35,34 38,37 38,40 35,43 33,43 32,42 31,42 30,41 30,36 31,35 Z" /><path d="M 42,34 43,33 44,34 43,35 Z" /><path d="M 70,32 71,31 72,31 73,32 72,33 71,33 Z" /><path d="M 27,30 28,29 29,30 28,31 Z" /><path d="M 55,26 58,26 60,28 60,33 59,34 55,34 53,32 53,28 Z" /><path d="M 41,27 42,26 43,27 42,28 Z" /><path d="M 36,27 37,26 40,29 38,31 38,32 37,33 36,33 35,32 32,32 31,31 30,31 28,29 30,27 31,28 32,28 33,29 35,27 Z" /><path d="M 35,30 Z" /><path d="M 2,27 3,26 4,27 3,28 Z" /><path d="M 37,26 38,25 39,26 38,27 Z" /><path d="M 48,23 50,23 53,26 53,28 51,30 47,30 46,29 46,25 Z" /><path d="M 14,24 15,23 16,24 15,25 Z" /><path d="M 7,23 8,22 9,23 8,24 Z" /><path d="M 61,20 64,20 67,23 67,26 65,28 63,28 59,24 59,22 Z" /><path d="M 35,21 36,20 37,21 36,22 Z" /><path d="M 32,21 33,20 34,21 33,22 Z" /><path d="M 26,21 27,20 28,20 29,21 28,22 27,22 Z" /><path d="M 67,19 68,18 69,19 69,20 70,21 69,22 68,22 67,21 Z" /><path d="M 38,18 39,19 39,20 38,21 37,21 36,20 Z" /><path d="M 33,19 34,18 35,19 34,20 Z" /><path d="M 29,19 30,18 31,19 31,20 32,21 32,22 31,23 29,21 Z" /><path d="M 7,18 8,19 8,20 7,21 6,21 5,20 Z" /><path d="M 40,18 41,17 42,17 43,18 43,20 42,21 41,21 40,20 Z" /><path d="M 30,18 31,17 32,18 31,19 Z" /><path d="M 12,17 13,16 14,17 14,18 13,19 12,19 11,20 10,19 10,18 11,17 Z" /><path d="M 14,15 15,14 16,15 15,16 Z" /><path d="M 55,14 56,13 57,14 57,15 56,16 55,15 Z" /><path d="M 47,14 48,13 49,14 49,15 48,16 47,15 Z" /><path d="M 31,13 32,14 32,15 30,17 29,16 29,15 Z" /><path d="M 28,14 29,13 30,14 29,15 Z" /><path d="M 10,14 11,13 12,14 11,15 Z" /><path d="M 9,13 10,12 11,13 10,14 Z" /><path d="M 48,11 49,10 51,12 51,13 52,14 50,16 49,15 49,14 48,13 Z" /><path d="M 50,10 51,9 55,9 56,10 55,11 55,12 54,13 52,13 51,12 51,11 Z" /><path d="M 21,10 22,9 23,10 23,11 22,12 21,11 Z" /><path d="M 59,9 60,8 62,10 61,11 60,11 59,10 Z" /><path d="M 46,9 47,8 48,9 48,11 46,13 45,13 44,12 45,11 43,11 42,10 43,9 Z" /><path d="M 38,9 39,8 40,9 41,9 43,11 43,12 44,12 45,13 44,14 44,15 42,17 41,16 40,16 38,14 37,14 36,15 35,15 32,18 31,17 31,16 33,14 33,13 34,12 34,11 36,9 Z" /><path d="M 37,11 37,12 Z" /><path d="M 47,6 48,5 49,5 50,6 49,7 48,7 Z" /><path d="M 42,1 Z" /><path d="M 36,1 37,1 Z" /><path d="M 32,1 Z" /><path d="M 40,0 Z" /></svg>